<svg version="1.1" viewBox="0.0 0.0 960.0 540.0" fill="none" stroke="none" stroke-linecap="square" stroke-miterlimit="10" xmlns:xlink="http://www.w3.org/1999/xlink" xmlns="http://www.w3.org/2000/svg"><clipPath id="p.0"><path d="m0 0l960.0 0l0 540.0l-960.0 0l0 -540.0z" clip-rule="nonzero"/></clipPath><g clip-path="url(#p.0)"><path fill="#ffffff" d="m0 0l960.0 0l0 540.0l-960.0 0z" fill-rule="evenodd"/><path fill="#000000" fill-opacity="0.0" d="m70.18898 48.464565l849.16534 0l0 468.97635l-849.16534 0z" fill-rule="evenodd"/><path stroke="#000000" stroke-width="1.0" stroke-linejoin="round" stroke-linecap="butt" d="m70.18898 48.464565l849.16534 0l0 468.97635l-849.16534 0z" fill-rule="evenodd"/><path fill="#000000" fill-opacity="0.0" d="m70.18898 132.02362l849.16534 0l0 300.6929l-849.16534 0z" fill-rule="evenodd"/><path stroke="#000000" stroke-width="1.0" stroke-linejoin="round" stroke-linecap="butt" d="m70.18898 132.02362l849.16534 0l0 300.6929l-849.16534 0z" fill-rule="evenodd"/><path fill="#000000" fill-opacity="0.0" d="m70.18898 228.77953l849.16534 0l0 108.34645l-849.16534 0z" fill-rule="evenodd"/><path stroke="#000000" stroke-width="1.0" stroke-linejoin="round" stroke-linecap="butt" d="m70.18898 228.77953l849.16534 0l0 108.34645l-849.16534 0z" fill-rule="evenodd"/><path fill="#000000" fill-opacity="0.0" d="m592.916 48.496063l0 468.91336l-192.72443 0l0 -468.91336z" fill-rule="evenodd"/><path stroke="#000000" stroke-width="1.0" stroke-linejoin="round" stroke-linecap="butt" d="m592.916 48.496063l0 468.91336l-192.72443 0l0 -468.91336z" fill-rule="evenodd"/><path fill="#000000" fill-opacity="0.0" d="m745.0 48.496063l0 468.91336l-519.81104 0l0 -468.91336z" fill-rule="evenodd"/><path stroke="#000000" stroke-width="1.0" stroke-linejoin="round" stroke-linecap="butt" d="m745.0 48.496063l0 468.91336l-519.81104 0l0 -468.91336z" fill-rule="evenodd"/><path fill="#000000" fill-opacity="0.0" d="m271.042 473.73026l37.242767 0l0 -13.85498l-6.933655 0l11.4123535 -14.667938l11.412384 14.667938l-6.933655 0l0 22.812378l-46.200195 0z" fill-rule="evenodd"/><path stroke="#000000" stroke-width="1.0" stroke-linejoin="round" stroke-linecap="butt" d="m271.042 473.73026l37.242767 0l0 -13.85498l-6.933655 0l11.4123535 -14.667938l11.412384 14.667938l-6.933655 0l0 22.812378l-46.200195 0z" fill-rule="evenodd"/><path fill="#000000" fill-opacity="0.0" d="m146.53223 142.96326l0 37.242767l13.854965 0l0 -6.93367l14.667923 11.412384l-14.667923 11.412369l0 -6.93367l-22.812393 0l0 -46.20018z" fill-rule="evenodd"/><path stroke="#000000" stroke-width="1.0" stroke-linejoin="round" stroke-linecap="butt" d="m146.53223 142.96326l0 37.242767l13.854965 0l0 -6.93367l14.667923 11.412384l-14.667923 11.412369l0 -6.93367l-22.812393 0l0 -46.20018z" fill-rule="evenodd"/><path fill="#000000" fill-opacity="0.0" d="m707.2126 87.20414l-37.242737 0l0 13.854973l6.933655 0l-11.4123535 14.667923l-11.412415 -14.667923l6.933655 0l0 -22.812393l46.200195 0z" fill-rule="evenodd"/><path stroke="#000000" stroke-width="1.0" stroke-linejoin="round" stroke-linecap="butt" d="m707.2126 87.20414l-37.242737 0l0 13.854973l6.933655 0l-11.4123535 14.667923l-11.412415 -14.667923l6.933655 0l0 -22.812393l46.200195 0z" fill-rule="evenodd"/><path fill="#000000" fill-opacity="0.0" d="m826.2263 423.93176l0 -37.242767l-13.85498 0l0 6.933655l-14.667908 -11.412384l14.667908 -11.4123535l0 6.933655l22.812378 0l0 46.200195z" fill-rule="evenodd"/><path stroke="#000000" stroke-width="1.0" stroke-linejoin="round" stroke-linecap="butt" d="m826.2263 423.93176l0 -37.242767l-13.85498 0l0 6.933655l-14.667908 -11.412384l14.667908 -11.4123535l0 6.933655l22.812378 0l0 46.200195z" fill-rule="evenodd"/><path fill="#000000" fill-opacity="0.0" d="m628.3333 472.02625l64.81891 0l0 -4.9448853l9.8897705 9.8897705l-9.8897705 9.8897705l0 -4.9448853l-64.81891 0z" fill-rule="evenodd"/><path stroke="#000000" stroke-width="1.0" stroke-linejoin="round" stroke-linecap="butt" d="m628.3333 472.02625l64.81891 0l0 -4.9448853l9.8897705 9.8897705l-9.8897705 9.8897705l0 -4.9448853l-64.81891 0z" fill-rule="evenodd"/><path fill="#000000" fill-opacity="0.0" d="m152.40945 355.6168l0 46.362213l4.94487 0l-9.889755 9.8897705l-9.8897705 -9.8897705l4.9448853 0l0 -46.362213z" fill-rule="evenodd"/><path stroke="#000000" stroke-width="1.0" stroke-linejoin="round" stroke-linecap="butt" d="m152.40945 355.6168l0 46.362213l4.94487 0l-9.889755 9.8897705l-9.8897705 -9.8897705l4.9448853 0l0 -46.362213z" fill-rule="evenodd"/><path fill="#000000" fill-opacity="0.0" d="m353.12335 93.08137l-64.81888 0l0 4.9448776l-9.8897705 -9.889763l9.8897705 -9.889763l0 4.9448853l64.81888 0z" fill-rule="evenodd"/><path stroke="#000000" stroke-width="1.0" stroke-linejoin="round" stroke-linecap="butt" d="m353.12335 93.08137l-64.81888 0l0 4.9448776l-9.8897705 -9.889763l9.8897705 -9.889763l0 4.9448853l64.81888 0z" fill-rule="evenodd"/><path fill="#000000" fill-opacity="0.0" d="m822.9974 209.1181l0 -46.362198l-4.9448853 0l9.8897705 -9.8897705l9.8897705 9.8897705l-4.9448853 0l0 46.362198z" fill-rule="evenodd"/><path stroke="#000000" stroke-width="1.0" stroke-linejoin="round" stroke-linecap="butt" d="m822.9974 209.1181l0 -46.362198l-4.9448853 0l9.8897705 -9.8897705l9.8897705 9.8897705l-4.9448853 0l0 46.362198z" fill-rule="evenodd"/><path fill="#000000" fill-opacity="0.0" d="m70.0 228.54068l157.29134 109.38583" fill-rule="evenodd"/><path stroke="#595959" stroke-width="1.0" stroke-linejoin="round" stroke-linecap="butt" d="m70.0 228.54068l157.29134 109.38583" fill-rule="evenodd"/><path fill="#000000" fill-opacity="0.0" d="m71.04199 337.91602l155.2126 -108.346466" fill-rule="evenodd"/><path stroke="#595959" stroke-width="1.0" stroke-linejoin="round" stroke-linecap="butt" d="m71.04199 337.91602l155.2126 -108.346466" fill-rule="evenodd"/><path fill="#000000" fill-opacity="0.0" d="m745.0 227.67717l174.99213 109.19685" fill-rule="evenodd"/><path stroke="#595959" stroke-width="1.0" stroke-linejoin="round" stroke-linecap="butt" d="m745.0 227.67717l174.99213 109.19685" fill-rule="evenodd"/><path fill="#000000" fill-opacity="0.0" d="m746.042 337.0525l172.91339 -108.50394" fill-rule="evenodd"/><path stroke="#595959" stroke-width="1.0" stroke-linejoin="round" stroke-linecap="butt" d="m746.042 337.0525l172.91339 -108.50394" fill-rule="evenodd"/><path fill="#000000" fill-opacity="0.0" d="m400.20734 49.375328l194.80316 83.338585" fill-rule="evenodd"/><path stroke="#595959" stroke-width="1.0" stroke-linejoin="round" stroke-linecap="butt" d="m400.20734 49.375328l194.80316 83.338585" fill-rule="evenodd"/><path fill="#000000" fill-opacity="0.0" d="m399.16534 133.75066l192.69293 -84.37795" fill-rule="evenodd"/><path stroke="#595959" stroke-width="1.0" stroke-linejoin="round" stroke-linecap="butt" d="m399.16534 133.75066l192.69293 -84.37795" fill-rule="evenodd"/><path fill="#000000" fill-opacity="0.0" d="m400.20734 432.70865l193.7638 85.41733" fill-rule="evenodd"/><path stroke="#595959" stroke-width="1.0" stroke-linejoin="round" stroke-linecap="butt" d="m400.20734 432.70865l193.7638 85.41733" fill-rule="evenodd"/><path fill="#000000" fill-opacity="0.0" d="m592.916 433.75067l-193.7638 82.299194" fill-rule="evenodd"/><path stroke="#595959" stroke-width="1.0" stroke-linejoin="round" stroke-linecap="butt" d="m592.916 433.75067l-193.7638 82.299194" fill-rule="evenodd"/><path fill="#000000" fill-opacity="0.0" d="m400.20734 230.62466l193.7638 107.3071" fill-rule="evenodd"/><path stroke="#595959" stroke-width="1.0" stroke-linejoin="round" stroke-linecap="butt" d="m400.20734 230.62466l193.7638 107.3071" fill-rule="evenodd"/><path fill="#000000" fill-opacity="0.0" d="m401.24933 337.91602l190.6142 -108.346466" fill-rule="evenodd"/><path stroke="#595959" stroke-width="1.0" stroke-linejoin="round" stroke-linecap="butt" d="m401.24933 337.91602l190.6142 -108.346466" fill-rule="evenodd"/></g></svg>